#!OML:ASF H:\Dans Jumps\Project 1\Capture day 1\Session 1\subject.ASF
:FULLY-SPECIFIED
:DEGREES
664
root 0.102896 17.8406 -5.14228 13.6978 -2.05241 -1.75921
lowerback -0.0898208 0.196807 -0.511777
upperback 4.82416 0.225007 1.18837
thorax 5.02274 0.0604495 1.5256
lowerneck -13.765 1.21763 -0.429391
upperneck 31.6137 2.09298 -0.666496
head 12.8155 0.77635 0.126395
rclavicle -2.48481e-017 1.04362e-015
rhumerus -34.7938 -4.62052 -82.3877
rradius 39.0258
rwrist 19.563
rhand -22.7607 -27.648
rfingers 7.12502
rthumb 3.67421 -57.5961
lclavicle -2.48481e-017 1.04362e-015
lhumerus -34.6005 -7.04061 89.5913
lradius 37.9024
lwrist 24.498
lhand -28.539 -6.71862
lfingers 7.12502
lthumb -1.90652 23.2526
rfemur -19.6051 -4.62074 21.3823
rtibia 20.3548
rfoot -12.9428 -1.53186
rtoes 19.52
lfemur -17.0944 7.49011 -18.5338
ltibia 17.0703
lfoot -10.8699 4.67639
ltoes 9.36345
665
root 0.103928 17.8403 -5.14252 13.6741 -2.06228 -1.75573
lowerback -0.102528 0.196447 -0.503638
upperback 4.82872 0.224228 1.18866
thorax 5.03482 0.0603028 1.52142
lowerneck -13.7593 1.23022 -0.431732
upperneck 31.7233 2.1132 -0.665039
head 12.86 0.784093 0.130652
rclavicle 6.70898e-016 -1.54058e-015
rhumerus -34.7761 -4.64071 -82.3907
rradius 39.0332
rwrist 19.5307
rhand -22.7589 -27.6427
rfingers 7.12502
rthumb 3.67588 -57.5907
lclavicle 6.70898e-016 -1.54058e-015
lhumerus -34.5387 -7.00588 89.5774
lradius 37.8192
lwrist 24.4554
lhand -28.5242 -6.72358
lfingers 7.12502
lthumb -1.8922 23.2478
rfemur -19.5865 -4.6118 21.371
rtibia 20.3666
rfoot -12.9477 -1.53567
rtoes 19.514
lfemur -17.0693 7.5009 -18.5398
ltibia 17.0729
lfoot -10.875 4.67179
ltoes 9.38248
666
root 0.104909 17.8399 -5.14286 13.6496 -2.07138 -1.75351
lowerback -0.112184 0.197311 -0.492417
upperback 4.83317 0.225053 1.18749
thorax 5.045 0.0611334 1.51405
lowerneck -13.7506 1.2409 -0.431941
upperneck 31.826 2.12952 -0.662339
head 12.9012 0.79062 0.134409
rclavicle -6.03808e-015 -3.23025e-015
rhumerus -34.7597 -4.66211 -82.3954
rradius 39.041
rwrist 19.5009
rhand -22.7616 -27.6437
rfingers 7.12502
rthumb 3.67335 -57.5918
lclavicle -6.03808e-015 -3.23025e-015
lhumerus -34.4799 -6.98669 89.5655
lradius 37.7438
lwrist 24.4219
lhand -28.5112 -6.74108
lfingers 7.12502
lthumb -1.87965 23.2304
rfemur -19.5665 -4.60082 21.3612
rtibia 20.3776
rfoot -12.9527 -1.5422
rtoes 19.4988
lfemur -17.0443 7.51055 -18.5437
ltibia 17.077
lfoot -10.8806 4.66844
ltoes 9.40086
667
root 0.105799 17.8396 -5.14339 13.6258 -2.07948 -1.75131
lowerback -0.121748 0.197871 -0.481149
upperback 4.83869 0.225494 1.1856
thorax 5.05627 0.0617825 1.50588
lowerneck -13.7331 1.24979 -0.437986
upperneck 31.9161 2.14305 -0.654982
head 12.9351 0.795994 0.140463
rclavicle 1.39149e-015 1.55549e-014
rhumerus -34.739 -4.6818 -82.4021
rradius 39.0449
rwrist 19.4756
rhand -22.7743 -27.6399
rfingers 7.12502
rthumb 3.66105 -57.5882
lclavicle 1.39149e-015 1.55549e-014
lhumerus -34.4243 -6.97487 89.5544
lradius 37.6806
lwrist 24.3974
lhand -28.5033 -6.76182
lfingers 7.12502
lthumb -1.87198 23.2097
rfemur -19.5468 -4.58778 21.3517
rtibia 20.3872
rfoot -12.957 -1.55145
rtoes 19.4855
lfemur -17.021 7.5184 -18.5472
ltibia 17.082
lfoot -10.8856 4.66663
ltoes 9.41046
668
root 0.106588 17.8392 -5.14406 13.6023 -2.08599 -1.74961
lowerback -0.131316 0.198495 -0.469682
upperback 4.845 0.226006 1.1837
thorax 5.06837 0.0624692 1.49762
lowerneck -13.7128 1.2574 -0.442717
upperneck 31.999 2.15487 -0.649677
head 12.9655 0.800588 0.145205
rclavicle 1.61513e-015 -5.36719e-015
rhumerus -34.7183 -4.69905 -82.409
rradius 39.0518
rwrist 19.4529
rhand -22.7823 -27.6454
rfingers 7.12502
rthumb 3.65336 -57.5938
lclavicle 1.61513e-015 -5.36719e-015
lhumerus -34.375 -6.97126 89.5463
lradius 37.6332
lwrist 24.3851
lhand -28.4982 -6.78346
lfingers 7.12502
lthumb -1.86712 23.1881
rfemur -19.527 -4.57237 21.3432
rtibia 20.3944
rfoot -12.9591 -1.56504
rtoes 19.4757
lfemur -17.0003 7.52413 -18.5494
ltibia 17.0894
lfoot -10.8886 4.66561
ltoes 9.41886
669
root 0.107288 17.839 -5.14482 13.5793 -2.0896 -1.74782
lowerback -0.141475 0.198131 -0.45872
upperback 4.85261 0.225178 1.18234
thorax 5.08221 0.0624423 1.49014
lowerneck -13.7064 1.26579 -0.435676
upperneck 32.0908 2.16937 -0.658024
head 13.0031 0.805814 0.143158
rclavicle -4.29872e-015 -3.97569e-016
rhumerus -34.6941 -4.71987 -82.4145
rradius 39.0551
rwrist 19.441
rhand -22.7928 -27.6474
rfingers 7.12502
rthumb 3.64316 -57.596
lclavicle -4.29872e-015 -3.97569e-016
lhumerus -34.331 -6.96786 89.5407
lradius 37.6
lwrist 24.3766
lhand -28.499 -6.80613
lfingers 7.12502
lthumb -1.86786 23.1654
rfemur -19.5066 -4.5607 21.3357
rtibia 20.3997
rfoot -12.96 -1.57728
rtoes 19.4762
lfemur -16.9816 7.53041 -18.5517
ltibia 17.0986
lfoot -10.8902 4.66244
ltoes 9.41839
670
root 0.107864 17.8388 -5.14575 13.5569 -2.09316 -1.7467
lowerback -0.151016 0.197124 -0.450497
upperback 4.86061 0.223482 1.183
thorax 5.09612 0.0618163 1.48625
lowerneck -13.7119 1.2749 -0.422326
upperneck 32.1907 2.18611 -0.674449
head 13.047 0.811573 0.137336
rclavicle 1.05604e-014 7.95139e-015
rhumerus -34.6681 -4.73974 -82.4173
rradius 39.0599
rwrist 19.4344
rhand -22.7958 -27.6519
rfingers 7.12502
rthumb 3.64027 -57.6006
lclavicle 1.05604e-014 7.95139e-015
lhumerus -34.2906 -6.96332 89.5385
lradius 37.5775
lwrist 24.373
lhand -28.4988 -6.81947
lfingers 7.12502
lthumb -1.86768 23.1521
rfemur -19.487 -4.54626 21.3292
rtibia 20.4038
rfoot -12.9596 -1.59172
rtoes 19.4871
lfemur -16.9656 7.53699 -18.5532
ltibia 17.1092
lfoot -10.8883 4.65857
ltoes 9.41801
